<?xml version="1.0" encoding="UTF-8"?>
<svg xmlns="http://www.w3.org/2000/svg" xmlns:xlink="http://www.w3.org/1999/xlink" width="58px" height="58px" viewBox="0 0 58 58" version="1.1">
<g id="surface1">
<path style=" stroke:none;fill-rule:evenodd;fill:rgb(100%,100%,100%);fill-opacity:1;" d="M 0.078125 0.203125 L 57.585938 0.203125 L 57.585938 57.710938 L 0.078125 57.710938 L 0.078125 0.203125 "/>
<path style=" stroke:none;fill-rule:evenodd;fill:rgb(13.72549%,12.156863%,12.54902%);fill-opacity:1;" d="M 24.144531 20.171875 L 24.144531 2.898438 L 18.46875 2.898438 L 18.46875 16.964844 L 24.144531 20.171875 "/>
<path style=" stroke:none;fill-rule:evenodd;fill:rgb(13.72549%,12.156863%,12.54902%);fill-opacity:1;" d="M 33.519531 20.171875 L 33.519531 2.898438 L 39.195312 2.898438 L 39.195312 16.964844 L 33.519531 20.171875 "/>
<path style=" stroke:none;fill-rule:evenodd;fill:rgb(13.72549%,12.156863%,12.54902%);fill-opacity:1;" d="M 28.832031 1.046875 L 31.546875 3.144531 L 31.546875 21.40625 L 28.832031 22.886719 L 26.117188 21.40625 L 26.117188 3.144531 L 28.832031 1.046875 "/>
<path style=" stroke:none;fill-rule:evenodd;fill:rgb(13.72549%,12.156863%,12.54902%);fill-opacity:1;" d="M 28.824219 28.304688 L 13.867188 36.941406 L 16.703125 41.855469 L 28.886719 34.824219 L 28.824219 28.304688 "/>
<path style=" stroke:none;fill-rule:evenodd;fill:rgb(13.72549%,12.156863%,12.54902%);fill-opacity:1;" d="M 24.136719 20.183594 L 9.179688 28.820312 L 6.339844 23.90625 L 18.519531 16.871094 L 24.136719 20.183594 "/>
<path style=" stroke:none;fill-rule:evenodd;fill:rgb(13.72549%,12.156863%,12.54902%);fill-opacity:1;" d="M 9.917969 33.804688 L 10.378906 30.40625 L 26.195312 21.277344 L 28.832031 22.886719 L 28.90625 25.976562 L 13.09375 35.105469 L 9.917969 33.804688 "/>
<path style=" stroke:none;fill-rule:evenodd;fill:rgb(13.72549%,12.156863%,12.54902%);fill-opacity:1;" d="M 33.527344 20.183594 L 48.484375 28.820312 L 51.324219 23.90625 L 39.144531 16.871094 L 33.527344 20.183594 "/>
<path style=" stroke:none;fill-rule:evenodd;fill:rgb(13.72549%,12.156863%,12.54902%);fill-opacity:1;" d="M 28.839844 28.304688 L 43.796875 36.941406 L 40.960938 41.855469 L 28.78125 34.824219 L 28.839844 28.304688 "/>
<path style=" stroke:none;fill-rule:evenodd;fill:rgb(13.72549%,12.156863%,12.54902%);fill-opacity:1;" d="M 47.742188 33.804688 L 44.570312 35.109375 L 28.757812 25.976562 L 28.832031 22.886719 L 31.472656 21.277344 L 47.285156 30.40625 L 47.742188 33.804688 "/>
<path style=" stroke:none;fill-rule:nonzero;fill:rgb(13.72549%,12.156863%,12.54902%);fill-opacity:1;" d="M 14.453125 47.335938 L 10.140625 47.335938 C 9.660156 47.335938 9.183594 47.335938 9.183594 46.378906 C 9.183594 45.417969 9.660156 45.417969 10.140625 45.417969 L 14.453125 45.417969 C 14.933594 45.417969 15.410156 45.417969 15.410156 46.378906 C 15.410156 47.335938 14.933594 47.335938 14.453125 47.335938 "/>
<path style=" stroke:none;fill-rule:nonzero;fill:rgb(13.72549%,12.156863%,12.54902%);fill-opacity:1;" d="M 10.152344 47.335938 C 10.148438 47.335938 8.863281 47.335938 8.863281 48.613281 C 8.863281 49.695312 10.421875 49.902344 10.425781 49.902344 C 10.902344 49.96875 11.378906 50.03125 11.25 50.976562 C 11.121094 51.925781 10.648438 51.859375 10.171875 51.796875 C 10.164062 51.796875 6.945312 51.367188 6.945312 48.613281 C 6.945312 45.417969 10.121094 45.417969 10.128906 45.417969 C 10.609375 45.414062 11.085938 45.40625 11.097656 46.363281 C 11.109375 47.320312 10.632812 47.328125 10.152344 47.335938 "/>
<path style=" stroke:none;fill-rule:nonzero;fill:rgb(13.72549%,12.156863%,12.54902%);fill-opacity:1;" d="M 10.441406 49.902344 L 12.519531 50.222656 C 12.992188 50.292969 13.464844 50.367188 13.324219 51.316406 C 13.179688 52.261719 12.707031 52.1875 12.234375 52.117188 L 10.15625 51.796875 C 9.683594 51.722656 9.210938 51.652344 9.351562 50.703125 C 9.496094 49.757812 9.96875 49.828125 10.441406 49.902344 "/>
<path style=" stroke:none;fill-rule:nonzero;fill:rgb(13.72549%,12.156863%,12.54902%);fill-opacity:1;" d="M 12.503906 50.222656 C 12.511719 50.222656 15.730469 50.652344 15.730469 53.40625 C 15.730469 57.546875 12.296875 56.570312 12.285156 56.566406 C 11.824219 56.4375 11.363281 56.3125 11.613281 55.386719 C 11.863281 54.460938 12.324219 54.589844 12.789062 54.714844 C 12.789062 54.71875 13.8125 55.011719 13.8125 53.40625 C 13.8125 52.324219 12.253906 52.117188 12.25 52.117188 C 11.773438 52.050781 11.300781 51.988281 11.425781 51.039062 C 11.554688 50.09375 12.03125 50.160156 12.503906 50.222656 "/>
<path style=" stroke:none;fill-rule:nonzero;fill:rgb(13.72549%,12.156863%,12.54902%);fill-opacity:1;" d="M 12.535156 56.601562 L 8.222656 56.601562 C 7.746094 56.601562 7.265625 56.601562 7.265625 55.640625 C 7.265625 54.683594 7.746094 54.683594 8.222656 54.683594 L 12.535156 54.683594 C 13.015625 54.683594 13.496094 54.683594 13.496094 55.640625 C 13.496094 56.601562 13.015625 56.601562 12.535156 56.601562 "/>
<path style=" stroke:none;fill-rule:nonzero;fill:rgb(13.72549%,12.156863%,12.54902%);fill-opacity:1;" d="M 17.0625 55.855469 L 17.0625 49.464844 C 17.0625 48.984375 17.0625 48.507812 18.019531 48.507812 C 18.976562 48.507812 18.976562 48.984375 18.976562 49.464844 L 18.976562 55.855469 C 18.976562 56.332031 18.976562 56.8125 18.019531 56.8125 C 17.0625 56.8125 17.0625 56.332031 17.0625 55.855469 "/>
<path style=" stroke:none;fill-rule:nonzero;fill:rgb(13.72549%,12.156863%,12.54902%);fill-opacity:1;" d="M 17.0625 49.425781 C 17.0625 49.417969 17.167969 45.394531 21.773438 45.394531 C 26.769531 45.394531 26.40625 49.601562 26.40625 49.613281 C 26.371094 50.089844 26.339844 50.570312 25.378906 50.5 C 24.421875 50.433594 24.453125 49.957031 24.488281 49.476562 C 24.488281 49.472656 24.679688 47.308594 21.773438 47.308594 C 19.03125 47.308594 18.976562 49.496094 18.976562 49.503906 C 18.957031 49.980469 18.9375 50.460938 17.980469 50.421875 C 17.019531 50.386719 17.042969 49.90625 17.0625 49.425781 "/>
<path style=" stroke:none;fill-rule:nonzero;fill:rgb(13.72549%,12.156863%,12.54902%);fill-opacity:1;" d="M 26.40625 49.546875 L 26.40625 55.855469 C 26.40625 56.332031 26.40625 56.8125 25.449219 56.8125 C 24.488281 56.8125 24.488281 56.332031 24.488281 55.855469 L 24.488281 49.546875 C 24.488281 49.066406 24.488281 48.585938 25.449219 48.585938 C 26.40625 48.585938 26.40625 49.066406 26.40625 49.546875 "/>
<path style=" stroke:none;fill-rule:nonzero;fill:rgb(13.72549%,12.156863%,12.54902%);fill-opacity:1;" d="M 18.179688 51.4375 L 25.207031 51.4375 C 25.6875 51.4375 26.164062 51.4375 26.164062 52.394531 C 26.164062 53.351562 25.6875 53.351562 25.207031 53.351562 L 18.179688 53.351562 C 17.699219 53.351562 17.222656 53.351562 17.222656 52.394531 C 17.222656 51.4375 17.699219 51.4375 18.179688 51.4375 "/>
<path style=" stroke:none;fill-rule:nonzero;fill:rgb(13.72549%,12.156863%,12.54902%);fill-opacity:1;" d="M 40.699219 55.855469 L 40.699219 49.464844 C 40.699219 48.984375 40.699219 48.507812 41.660156 48.507812 C 42.617188 48.507812 42.617188 48.984375 42.617188 49.464844 L 42.617188 55.855469 C 42.617188 56.332031 42.617188 56.8125 41.660156 56.8125 C 40.699219 56.8125 40.699219 56.332031 40.699219 55.855469 "/>
<path style=" stroke:none;fill-rule:nonzero;fill:rgb(13.72549%,12.156863%,12.54902%);fill-opacity:1;" d="M 40.699219 49.425781 C 40.699219 49.417969 40.804688 45.394531 45.410156 45.394531 C 50.40625 45.394531 50.042969 49.601562 50.042969 49.613281 C 50.007812 50.089844 49.976562 50.570312 49.015625 50.5 C 48.058594 50.433594 48.09375 49.957031 48.128906 49.476562 C 48.128906 49.472656 48.316406 47.308594 45.410156 47.308594 C 42.671875 47.308594 42.617188 49.496094 42.617188 49.503906 C 42.597656 49.980469 42.574219 50.460938 41.617188 50.421875 C 40.660156 50.386719 40.679688 49.90625 40.699219 49.425781 "/>
<path style=" stroke:none;fill-rule:nonzero;fill:rgb(13.72549%,12.156863%,12.54902%);fill-opacity:1;" d="M 50.042969 49.546875 L 50.042969 55.855469 C 50.042969 56.332031 50.042969 56.8125 49.085938 56.8125 C 48.128906 56.8125 48.128906 56.332031 48.128906 55.855469 L 48.128906 49.546875 C 48.128906 49.066406 48.128906 48.585938 49.085938 48.585938 C 50.042969 48.585938 50.042969 49.066406 50.042969 49.546875 "/>
<path style=" stroke:none;fill-rule:nonzero;fill:rgb(13.72549%,12.156863%,12.54902%);fill-opacity:1;" d="M 41.816406 51.4375 L 48.84375 51.4375 C 49.324219 51.4375 49.804688 51.4375 49.804688 52.394531 C 49.804688 53.351562 49.324219 53.351562 48.84375 53.351562 L 41.816406 53.351562 C 41.339844 53.351562 40.859375 53.351562 40.859375 52.394531 C 40.859375 51.4375 41.339844 51.4375 41.816406 51.4375 "/>
<path style=" stroke:none;fill-rule:nonzero;fill:rgb(13.72549%,12.156863%,12.54902%);fill-opacity:1;" d="M 29.839844 46.21875 L 29.839844 55.800781 C 29.839844 56.28125 29.839844 56.757812 28.882812 56.757812 C 27.921875 56.757812 27.921875 56.28125 27.921875 55.800781 L 27.921875 46.21875 C 27.921875 45.738281 27.921875 45.261719 28.882812 45.261719 C 29.839844 45.261719 29.839844 45.738281 29.839844 46.21875 "/>
<path style=" stroke:none;fill-rule:nonzero;fill:rgb(13.72549%,12.156863%,12.54902%);fill-opacity:1;" d="M 31.597656 55.90625 L 31.597656 46.324219 C 31.597656 45.84375 32.074219 45.367188 32.554688 45.367188 L 35.269531 45.367188 C 35.75 45.367188 36.226562 45.367188 36.226562 46.324219 C 36.226562 47.285156 35.75 47.285156 35.269531 47.285156 L 33.511719 47.285156 L 33.511719 55.90625 C 33.511719 56.386719 33.511719 56.867188 32.554688 56.867188 C 31.597656 56.867188 31.597656 56.386719 31.597656 55.90625 "/>
<path style=" stroke:none;fill-rule:nonzero;fill:rgb(13.72549%,12.156863%,12.54902%);fill-opacity:1;" d="M 35.351562 45.367188 C 35.363281 45.367188 39.183594 45.675781 39.183594 49.28125 C 39.183594 52.902344 35.421875 53.113281 35.414062 53.113281 C 34.933594 53.144531 34.457031 53.175781 34.394531 52.21875 C 34.328125 51.261719 34.808594 51.226562 35.285156 51.195312 C 35.289062 51.195312 37.265625 51.085938 37.265625 49.28125 C 37.265625 47.453125 35.191406 47.285156 35.1875 47.285156 C 34.710938 47.242188 34.234375 47.199219 34.316406 46.238281 C 34.398438 45.28125 34.875 45.324219 35.351562 45.367188 "/>
<path style=" stroke:none;fill-rule:nonzero;fill:rgb(13.72549%,12.156863%,12.54902%);fill-opacity:1;" d="M 35.324219 53.113281 L 32.527344 53.03125 C 32.050781 53.019531 31.570312 53.003906 31.597656 52.046875 C 31.625 51.089844 32.101562 51.101562 32.578125 51.117188 L 35.375 51.195312 C 35.855469 51.210938 36.332031 51.222656 36.308594 52.179688 C 36.28125 53.140625 35.800781 53.125 35.324219 53.113281 "/>
</g>
</svg>
